<?xml version="1.0" encoding="utf-8"?>

<!-- Uploaded to: SVG Repo, www.svgrepo.com, Generator: SVG Repo Mixer Tools -->
<svg fill="#000000" height="800px" width="800px" version="1.1" id="Icons" xmlns="http://www.w3.org/2000/svg" xmlns:xlink="http://www.w3.org/1999/xlink" 
	 viewBox="0 0 32 32" xml:space="preserve">
<g>
	<path d="M15.2,11.3c-1.8-3.4-3.7-6.6-5.7-9.8C4.6,3.6,1,8.2,0.2,13.7C5,13.8,10,13,15.2,11.3z"/>
	<path d="M17.1,10.6c3.6-1.4,7.1-3.2,10.7-5.4C24.8,2,20.7,0,16,0c-1.6,0-3.2,0.2-4.6,0.7C13.4,3.9,15.3,7.2,17.1,10.6z"/>
	<path d="M19.9,16.5c2.9-0.8,6-1.3,9.1-1.3c1,0,1.9,0,2.9,0.1c-0.1-3.2-1.2-6.2-2.9-8.6C25.3,9.1,21.6,11,18,12.4
		C18.6,13.8,19.3,15.1,19.9,16.5z"/>
	<path d="M18,17.1c-0.6-1.4-1.3-2.7-2-4.1c-5,1.7-9.9,2.6-14.6,2.6c-0.5,0-0.9,0-1.4,0c0,0.1,0,0.2,0,0.4c0,4,1.5,7.6,3.9,10.4
		C7.9,22.1,12.7,19,18,17.1z"/>
	<path d="M29.1,17.3c-2.8,0-5.6,0.4-8.3,1.1c1.6,3.5,2.9,7.2,4.2,10.9c3.9-2.6,6.5-6.9,7-11.8C31,17.3,30,17.3,29.1,17.3z"/>
	<path d="M18.9,19c-5.1,1.7-9.7,4.7-13.6,8.9C8.1,30.4,11.9,32,16,32c2.6,0,5-0.6,7.2-1.7C21.9,26.4,20.5,22.7,18.9,19z"/>
</g>
</svg>